<svg xmlns="http://www.w3.org/2000/svg" viewBox="0 0 198.892 58.426">
  <defs>
    <style>
      .cls-1,.cls-2{fill:#fff}.cls-2{font-size:32px;font-family:Raleway-Black,Raleway;font-weight:800}.cls-3{font-size:10px;font-family:Raleway-Regular,Raleway;font-weight:400}
    </style>
  </defs>

  <g id="Group_422" data-name="Group 422" transform="translate(-2934 200)">
    <g id="Group_421" data-name="Group 421" transform="translate(2934 -194.1)">
      <g id="Group_420" data-name="Group 420">
        <g id="Group_419" data-name="Group 419">
          <path id="Path_423" d="M28.686 6c-12.47-.231-23.14 12.193-25.5 15.149-.277.323-.139.6.323.6h16.263c-.092.416-.231.924-.369 1.478l-15.611.831A2.2 2.2 0 0 0 1.9 25.533a57.876 57.876 0 0 0-1.526 7.806c0 .092-.046.139-.046.231-.693 6-.554 13.625 3.464 18.844-.416 3.418.416 5.034 1.062 5.681a1.845 1.845 0 0 0 1.386.416c5.5-.693 11.5-4.9 13.44-6.328a2.638 2.638 0 0 1 1.432-.462c11.362 0 29.329-8.36 31.361-23.509C54.551 12.693 42.866 6.273 28.686 6zm-6.974 15.75h6.281a13.939 13.939 0 0 1 5.265.785l-11.916.6a10.449 10.449 0 0 0 .37-1.389zM9.473 25.672l9.422-.462q-.346 1.178-.693 2.633a57.154 57.154 0 0 1-8.868-.743c.046-.6.092-1.059.139-1.428zm-.416 3.279a57.785 57.785 0 0 0 8.591.739c-.092.323-.185.647-.277.924-3.325-.139-6.189-.139-8.545 0 .092-.554.139-1.155.231-1.663zm-.554 3.6c2.032-.092 4.711-.139 8.221 0-.277.831-.508 1.617-.831 2.448-2.633-.046-5.4-.231-7.759-.462a15 15 0 0 0 .366-1.983zm6.789 4.349c-.462 1.247-.924 2.494-1.432 3.695-2.494 0-4.85-.092-6.836-.185.277-1.293.554-2.633.831-3.972 2.588.273 5.359.411 7.437.462zM7.533 25.764c-.046.277-.046.554-.092.878a7.983 7.983 0 0 1-1.894-.785zm-3.972.97a7.673 7.673 0 0 0 3.6 1.8c-.092.693-.185 1.432-.323 2.217a19.975 19.975 0 0 0-4.3.785c.376-2.031.746-3.736 1.023-4.802zm3 5.958l-.277 1.663A15.2 15.2 0 0 1 2.5 33.57a12.368 12.368 0 0 1 4.063-.878zm-4.48 2.725a24.483 24.483 0 0 0 3.834.831 643.316 643.316 0 0 1-.831 4.111c-1.339-.092-2.448-.139-3.141-.185a40.326 40.326 0 0 1 .14-4.757zM3.145 47.01a24.686 24.686 0 0 1-1.016-4.942c.647.046 1.478.092 2.54.185-.508 1.801-1.016 3.418-1.524 4.757zm1.8 3.325c-.092 0-.139.046-.231.046a7.137 7.137 0 0 1-.554-1.016 32.275 32.275 0 0 0 2.448-7.02c1.847.092 4.064.185 6.466.185a35.269 35.269 0 0 1-4.111 7.251 27.411 27.411 0 0 1-4.017.555zm14.826-6.328c-.323.323-.785.831-1.108 1.108a18.269 18.269 0 0 1-6.882 3.926 53.443 53.443 0 0 0 3.372-6.512c2.217 0 4.48-.046 6.743-.185a20.717 20.717 0 0 0-2.124 1.664zm10.161-4.573a77.1 77.1 0 0 1-13.995 1.2 96.92 96.92 0 0 0 2.817-7.99c3.464.185 7.667.462 12.794.924-.737 2.265-1.291 4.482-1.615 5.868zm4.942-13.025a19.682 19.682 0 0 0-2.674 5.313c-4.8-.462-9.1-.785-12.84-.97.647-2.125 1.155-4.064 1.57-5.635l14.41-.739a1.853 1.853 0 0 1 .139.693 2.525 2.525 0 0 1-.604 1.34z" class="cls-1" data-name="Path 423" transform="translate(-.008 -5.993)" />
        </g>
      </g>
    </g>

    <text id="NILCA_National_Inter_Scholastic_Lacrosse_Coaches_Association" class="cls-2" data-name="NILCA National Inter Scholastic Lacrosse Coaches Association" transform="translate(2992.892 -170)">
      <tspan x="0" y="0">NILCA</tspan>
      <tspan class="cls-3">
        <tspan x="0" y="13">National Inter Scholastic </tspan>
        <tspan x="0" y="26">Lacrosse Coaches Association</tspan>
      </tspan>
    </text>
  </g>
</svg>
